HIERARCHY
ROOT root
{
	OFFSET	0	13.1	24.9
	CHANNELS 6  Xposition Yposition Zposition Xrotation Yrotation Zrotation
	JOINT spine_1
	{
		OFFSET	0	9.99999	0
		CHANNELS 3  Xrotation Yrotation Zrotation
		JOINT spine_2
		{
			OFFSET	0	112	-10
			CHANNELS 3  Xrotation Yrotation Zrotation
			JOINT spine_3
			{
				OFFSET	0	206.5	19.3
				CHANNELS 3  Xrotation Yrotation Zrotation
				JOINT spine_4
				{
					OFFSET	0	110.4	14.6
					CHANNELS 3  Xrotation Yrotation Zrotation
					JOINT neck_1
					{
						OFFSET	0	71.8	-50.3
						CHANNELS 3  Xrotation Yrotation Zrotation
						JOINT neck_2
						{
							OFFSET	0	86.2	-25.8
							CHANNELS 3  Xrotation Yrotation Zrotation
							JOINT head_ee
							{
								OFFSET	0	179.8	-8.7
								CHANNELS 3  Xrotation Yrotation Zrotation
								End Site
								{
									OFFSET	1	0	0
								}
							}
						}
					}
					JOINT left_clavicle
					{
						OFFSET	-43.2	22.4	-70.8
						CHANNELS 3  Xrotation Yrotation Zrotation
						JOINT left_shoulder
						{
							OFFSET	-93.9	-5.79999	48.7
							CHANNELS 3  Xrotation Yrotation Zrotation
							JOINT left_elbow
							{
								OFFSET	-291.4	-30.8	15.2
								CHANNELS 3  Xrotation Yrotation Zrotation
								JOINT left_lowarm_twist
								{
									OFFSET	-110.7	-3.89999	13.6
									CHANNELS 3  Xrotation Yrotation Zrotation
									JOINT left_hand
									{
										OFFSET	-110.7	-3.89999	13.6
										CHANNELS 3  Xrotation Yrotation Zrotation
										JOINT left_ee
										{
											OFFSET	-80.8	-5.10001	12.1
											CHANNELS 3  Xrotation Yrotation Zrotation
											End Site
											{
												OFFSET	1	0	0
											}
										}
									}
								}
							}
						}
					}
					JOINT right_clavicle
					{
						OFFSET	43.2	22.4	-70.8
						CHANNELS 3  Xrotation Yrotation Zrotation
						JOINT right_shoulder
						{
							OFFSET	93.9	-5.79999	48.7
							CHANNELS 3  Xrotation Yrotation Zrotation
							JOINT right_elbow
							{
								OFFSET	291.4	-30.8	15.2
								CHANNELS 3  Xrotation Yrotation Zrotation
								JOINT right_lowarm_twist
								{
									OFFSET	110.7	-3.89999	13.6
									CHANNELS 3  Xrotation Yrotation Zrotation
									JOINT right_hand
									{
										OFFSET	110.7	-3.89999	13.6
										CHANNELS 3  Xrotation Yrotation Zrotation
										JOINT right_ee
										{
											OFFSET	80.8	-5.10001	12.1
											CHANNELS 3  Xrotation Yrotation Zrotation
											End Site
											{
												OFFSET	1	0	0
											}
										}
									}
								}
							}
						}
					}
				}
			}
		}
	}
	JOINT left_hip
	{
		OFFSET	-82.8	-127.5	0.300001
		CHANNELS 3  Xrotation Yrotation Zrotation
		JOINT left_knee
		{
			OFFSET	-28.2	-396.7	2.2
			CHANNELS 3  Xrotation Yrotation Zrotation
			JOINT left_ankle
			{
				OFFSET	-11.7	-411.3	35.4
				CHANNELS 3  Xrotation Yrotation Zrotation
				JOINT left_toes
				{
					OFFSET	0	-60	-88.6
					CHANNELS 3  Xrotation Yrotation Zrotation
					JOINT left_foot_ee
					{
						OFFSET	-22.5	-16.5	-42.2
						CHANNELS 3  Xrotation Yrotation Zrotation
						End Site
						{
							OFFSET	1	0	0
						}
					}
				}
			}
		}
	}
	JOINT right_hip
	{
		OFFSET	82.8	-127.5	0.300001
		CHANNELS 3  Xrotation Yrotation Zrotation
		JOINT right_knee
		{
			OFFSET	28.2	-396.7	2.2
			CHANNELS 3  Xrotation Yrotation Zrotation
			JOINT right_ankle
			{
				OFFSET	11.7	-411.3	35.4
				CHANNELS 3  Xrotation Yrotation Zrotation
				JOINT right_toes
				{
					OFFSET	0	-60	-88.6
					CHANNELS 3  Xrotation Yrotation Zrotation
					JOINT right_foot_ee
					{
						OFFSET	22.5	-16.5	-42.2
						CHANNELS 3  Xrotation Yrotation Zrotation
						End Site
						{
							OFFSET	1	0	0
						}
					}
				}
			}
		}
	}
}
MOTION
Frames: 6
Frame Time: 0.02
3688.59 740.239 -1235.06 -13.2652 75.4739 9.36762 1.25855 0.186353 1.06935 1.25918 0.117934 1.07904 1.26153 -0.0876939 1.08192 1.2599 0.0842649 1.08219 -2.38165 4.64966 5.46709 -2.30219 4.10427 6.35571 -0.0 0.0 -0.0 -4.85853 11.375 -6.94704 1.30327 -49.7448 78.6691 1.02257 -26.864 0.244221 11.4667 0.260763 -1.43912 0.231243 4.32542 3.33549 -0.0 0.0 -0.0 2.06473 1.27664 -3.87056 -17.8587 20.9243 -69.2129 1.98961 44.5793 -0.815645 32.0545 0.00170264 4.04182 -0.550956 -18.5807 -4.19861 0.0 0.0 0.0 -4.40877 32.8102 7.28357 -1.90975 0.0739084 0.283748 24.6103 -30.695 -4.12953 -18.8211 0.0 0.0 -0.0 0.0 -0.0 11.9307 -26.2224 10.5646 -12.1743 -0.306796 -1.83964 20.443 32.4998 3.60973 -8.42225 0.0 0.0 0.0 0.0 0.0 
3689.78 740.923 -1233.81 -14.1802 75.3943 10.28 1.37347 0.151124 0.975839 1.37399 0.0887258 0.983477 1.3756 -0.0963999 0.982754 1.37426 0.0600099 0.985645 -2.6394 4.7882 5.83403 -2.54916 4.09891 6.75774 -0.0 0.0 -0.0 -4.8492 11.2679 -6.95611 2.23128 -50.3825 79.7842 1.00119 -26.3791 0.234641 11.2161 0.258161 -1.40722 0.148285 4.81503 2.99005 -0.0 0.0 -0.0 1.93517 1.22376 -3.62268 -17.9613 21.245 -68.8706 1.99817 44.7023 -0.821662 31.9982 -0.000284093 4.0349 -0.572984 -18.4361 -4.00627 0.0 0.0 0.0 -4.05667 32.428 7.40106 -1.25321 0.0495691 0.185931 22.4398 -28.9396 -3.73198 -19.7517 0.0 0.0 -0.0 0.0 -0.0 12.4207 -25.7734 10.2303 -11.8064 -0.303286 -1.7833 19.6903 32.6114 3.49806 -8.59569 0.0 0.0 0.0 0.0 0.0 
3692.64 740.846 -1233.39 -16.5352 75.6715 12.4864 1.46476 0.15168 0.924806 1.46523 0.0925278 0.932582 1.4668 -0.0816777 0.933595 1.46559 0.0667847 0.934779 -3.04543 4.55018 5.01775 -2.97777 4.35853 5.87513 -0.0 0.0 -0.0 -4.57734 10.9124 -6.56552 2.62041 -50.7284 79.8639 0.975389 -25.7884 0.223295 11.9936 0.265777 -1.50623 0.114994 5.221 2.93817 -0.0 0.0 -0.0 1.98233 1.17584 -3.71864 -18.1994 22.8629 -68.2524 1.95708 44.1074 -0.792911 32.2866 0.00996023 4.0703 -0.625062 -18.8387 -3.85866 0.0 0.0 0.0 -5.32651 33.6951 8.85782 3.017 -0.135946 -0.442917 21.3164 -28.07 -3.53107 -20.402 0.0 0.0 -0.0 0.0 -0.0 12.6657 -25.2755 9.95924 -11.4885 -0.299962 -1.73463 20.5281 31.9656 3.59553 -8.5035 0.0 0.0 0.0 0.0 0.0 
3689.23 741.195 -1232.95 -18.1975 75.9322 14.1783 1.59258 0.0596329 0.967477 1.5931 -0.00204806 0.969311 1.59309 -0.179332 0.952581 1.59182 -0.026646 0.968947 -3.32128 4.68705 5.10683 -3.2511 4.57137 5.98937 -0.0 0.0 -0.0 -3.96775 10.2766 -5.6414 1.9578 -51.5984 79.4392 0.918053 -24.4546 0.198952 11.3508 0.259577 -1.42437 0.21013 5.12907 3.52571 -0.0 0.0 -0.0 1.90441 1.15353 -3.5689 -18.3547 22.9208 -68.5203 1.9035 43.3133 -0.755884 32.333 0.0116287 4.076 -0.779449 -20.4945 -3.62603 0.0 0.0 0.0 -3.60367 32.7903 8.1053 -1.19686 0.0474278 0.177548 23.0439 -26.6363 -3.71426 -20.5144 0.0 0.0 -0.0 0.0 -0.0 13.7426 -24.7251 10.5096 -13.4718 -0.316282 -2.03849 18.4239 30.4952 3.20121 -7.37053 0.0 0.0 0.0 0.0 0.0 
3691.7 741.449 -1231.05 -17.1349 75.3615 13.1872 1.57585 0.0961655 0.959312 1.57636 0.03493 0.963487 1.57699 -0.142175 0.95358 1.57572 0.0102022 0.964065 -3.69692 4.90032 4.65465 -3.63707 5.35598 5.55881 -0.0 0.0 -0.0 -3.86083 10.9162 -5.32039 2.47581 -50.9277 79.5559 0.905531 -24.1594 0.193798 11.4655 0.26075 -1.43897 0.0776143 5.5022 2.80853 -0.0 0.0 -0.0 1.97274 1.80374 -3.64581 -18.8373 24.2393 -67.829 1.91451 43.4781 -0.763447 31.9341 -0.00253752 4.02702 -0.706788 -20.0869 -3.88713 0.0 0.0 0.0 -4.29622 32.8563 8.65088 0.0257375 -0.00106079 -0.0038072 21.2746 -25.7004 -3.42892 -21.2683 0.0 0.0 -0.0 0.0 -0.0 13.5021 -25.1935 10.2802 -12.3803 -0.308602 -1.87119 16.8551 30.8537 2.96847 -8.34696 0.0 0.0 0.0 0.0 0.0 
3692.58 741.734 -1231.98 -18.1672 75.6635 14.1447 1.60923 0.0950756 0.968451 1.60975 0.0332609 0.972538 1.61035 -0.144914 0.962256 1.60905 0.00886753 0.973066 -3.03265 4.57874 4.05283 -2.98563 5.16323 4.87667 -0.0 0.0 -0.0 -3.65668 9.9952 -5.15556 1.86483 -50.982 79.1951 0.897621 -23.9723 0.190572 12.2171 0.267717 -1.53471 0.190261 5.33224 3.47826 -0.0 0.0 -0.0 1.72711 1.14767 -3.2244 -18.7915 25.8299 -67.9695 1.91265 43.4503 -0.762167 33.2542 0.0456388 4.18872 -0.896018 -22.0142 -3.57942 0.0 0.0 0.0 -3.72846 32.9149 8.6135 -0.641696 0.0258902 0.0950718 22.6458 -24.0473 -3.55674 -21.5252 0.0 0.0 -0.0 0.0 -0.0 13.2281 -23.7525 10.2825 -12.1751 -0.306803 -1.83977 18.1336 31.1324 3.1834 -8.79593 0.0 0.0 0.0 0.0 0.0 
